<svg width="32" height="32" viewBox="0 0 32 32" fill="#717171" xmlns="http://www.w3.org/2000/svg">
    <rect width="32" height="32" rx="4" fill="#E9ECEF" />
    <path
        d="M9.33268 5.33203C7.86246 5.33203 6.66602 6.52848 6.66602 7.9987C6.66602 9.15568 7.41157 10.1339 8.44379 10.5022V11.8251V22.4049V25.7973C8.44379 26.2773 8.83185 26.6654 9.31185 26.6654H9.35352C9.83352 26.6654 10.2216 26.2773 10.2216 25.7973V21.5352C10.5191 21.1896 11.2335 20.4848 13.2841 20.4848C14.3721 20.4848 15.2619 20.8643 16.2059 21.2661C17.1277 21.6589 18.081 22.0647 19.1886 22.0647C21.2855 22.0647 22.7099 20.9629 23.3188 20.4918L23.4542 20.3893C23.944 20.0347 24.4438 19.5507 24.4438 18.6654V11.2661C24.4438 10.4589 23.7521 9.77648 22.9316 9.77648C22.4916 9.77648 22.1686 10.0312 21.725 10.3841C21.1366 10.8499 20.249 11.5543 19.1886 11.5543C18.4641 11.5543 17.7573 11.2162 16.9368 10.8234C15.9137 10.3327 14.7534 9.77648 13.2823 9.77648C12.2734 9.77648 11.4853 9.94389 10.8553 10.1827C11.5452 9.70019 11.9993 8.9025 11.9993 7.9987C11.9993 6.52848 10.8029 5.33203 9.33268 5.33203ZM9.33268 7.10981C9.82335 7.10981 10.2216 7.50892 10.2216 7.9987C10.2216 8.48848 9.82335 8.88759 9.33268 8.88759C8.84202 8.88759 8.44379 8.48848 8.44379 7.9987C8.44379 7.50892 8.84202 7.10981 9.33268 7.10981ZM13.2823 11.5543C14.3508 11.5543 15.2335 11.9778 16.1695 12.4258C17.0984 12.872 18.0597 13.332 19.1886 13.332C20.7486 13.332 21.9176 12.4916 22.6643 11.9067V18.7244C22.6634 18.7279 22.6242 18.7945 22.4073 18.9518L22.2303 19.0872C21.7263 19.4766 20.6775 20.2869 19.1886 20.2869C18.4437 20.2869 17.7297 19.9835 16.9021 19.6306C15.8861 19.1969 14.7339 18.7053 13.2823 18.7053C11.9028 18.7053 10.9202 18.9836 10.2216 19.332V12.7643C10.5282 12.359 11.2281 11.5543 13.2823 11.5543Z"
        fill="" />
</svg>