<svg width="32" height="32" viewBox="0 0 32 32" fill="none" xmlns="http://www.w3.org/2000/svg">
<rect width="32" height="32" rx="4" fill="#E9ECEF"/>
<path d="M25.1581 5.33203C24.4354 5.33203 23.7274 5.61228 23.1816 6.15804L13.83 15.4801L13.6235 15.6866L13.5645 15.9816L12.9155 19.2856L12.6205 20.6721L14.007 20.3771L17.3111 19.7281L17.6061 19.6691L17.8126 19.4626L27.1346 10.1111C28.2225 9.02325 28.2225 7.24586 27.1346 6.15804C26.5889 5.61228 25.8809 5.33203 25.1581 5.33203ZM25.1581 7.16104C25.3794 7.16104 25.5969 7.27536 25.8071 7.48555C26.2275 7.90593 26.2275 8.36318 25.8071 8.78356L16.6621 17.9286L15.0396 18.2531L15.3641 16.6306L24.5091 7.48555C24.7193 7.27536 24.9369 7.16104 25.1581 7.16104ZM5.33398 9.07856V27.9587H24.2141V15.5096L22.3261 17.3976V26.0707H7.222V10.9666H15.8951L17.7831 9.07856H5.33398Z" fill="#717171"/>
</svg>
